<svg width="24" height="24" viewBox="0 0 24 24" fill="none" xmlns="http://www.w3.org/2000/svg">
<path fill-rule="evenodd" clip-rule="evenodd" d="M16.2 11.5333C16.2 14.1107 14.1107 16.2 11.5333 16.2C8.956 16.2 6.86667 14.1107 6.86667 11.5333C6.86667 8.956 8.956 6.86667 11.5333 6.86667C14.1107 6.86667 16.2 8.956 16.2 11.5333ZM5 11.5333C5 15.1416 7.92507 18.0667 11.5333 18.0667C13.0008 18.0667 14.3554 17.5828 15.446 16.766L17.4067 18.7266C17.7712 19.0911 18.3621 19.0911 18.7266 18.7266C19.0911 18.3621 19.0911 17.7712 18.7266 17.4067L16.766 15.446C17.5828 14.3554 18.0667 13.0008 18.0667 11.5333C18.0667 7.92507 15.1416 5 11.5333 5C7.92507 5 5 7.92507 5 11.5333Z" fill="#B9C1CC"/>
<mask id="mask0_102_2836" style="mask-type:luminance" maskUnits="userSpaceOnUse" x="5" y="5" width="14" height="14">
<path fill-rule="evenodd" clip-rule="evenodd" d="M16.2 11.5333C16.2 14.1107 14.1107 16.2 11.5333 16.2C8.956 16.2 6.86667 14.1107 6.86667 11.5333C6.86667 8.956 8.956 6.86667 11.5333 6.86667C14.1107 6.86667 16.2 8.956 16.2 11.5333ZM5 11.5333C5 15.1416 7.92507 18.0667 11.5333 18.0667C13.0008 18.0667 14.3554 17.5828 15.446 16.766L17.4067 18.7266C17.7712 19.0911 18.3621 19.0911 18.7266 18.7266C19.0911 18.3621 19.0911 17.7712 18.7266 17.4067L16.766 15.446C17.5828 14.3554 18.0667 13.0008 18.0667 11.5333C18.0667 7.92507 15.1416 5 11.5333 5C7.92507 5 5 7.92507 5 11.5333Z" fill="white"/>
</mask>
<g mask="url(#mask0_102_2836)">
</g>
</svg>
