<svg
            className="loading__logo"
            viewBox="0 0 104 104"
            fill="#364fd4"
            xmlns="http://www.w3.org/2000/svg">
            <path
              d="M36.7642 21.3281C36.7642 12.9191 43.5895 6.09375 51.9985 6.09375C60.4084 6.09375 67.2329 12.9191 67.2329 21.3281V30.6719H73.3266V21.3281C73.3266 9.5675 63.7599 0 51.9985 0C40.2379 0 30.6704 9.5675 30.6704 21.3281V30.6719H36.7642V21.3281Z"
              fill=""
            />
            <path
              fillRule="evenodd"
              clipRule="evenodd"
              d="M9.3422 104C8.42814 104 7.57517 103.573 7.02689 102.903C6.41752 102.233 6.17313 101.319 6.35642 100.405L18.5439 33.1705C18.7875 31.7073 20.0674 30.6719 21.5297 30.6719H30.6703V42.8594H27.6234C25.9167 42.8594 24.5766 44.1995 24.5766 45.9062C24.5766 47.6122 25.9167 48.9531 27.6234 48.9531H39.8109C41.5177 48.9531 42.8578 47.6122 42.8578 45.9062C42.8578 44.1995 41.5177 42.8594 39.8109 42.8594H36.7641V30.6719H67.2328V42.8594H64.1859C62.4792 42.8594 61.1391 44.1995 61.1391 45.9062C61.1391 47.6122 62.4792 48.9531 64.1859 48.9531H76.3734C78.0802 48.9531 79.4203 47.6122 79.4203 45.9062C79.4203 44.1995 78.0802 42.8594 76.3734 42.8594H73.3266V30.6719H82.4672C83.9295 30.6719 85.2094 31.7073 85.453 33.1705L97.6405 100.405C97.8237 101.319 97.5794 102.233 96.9708 102.903C96.4217 103.573 95.5687 104 94.6547 104H9.3422Z"
              fill=""
            />
            <path
              d="M52.5999 87.5C51.1332 87.5 49.6666 87.3167 48.1999 86.95C46.7666 86.5833 45.4666 85.95 44.2999 85.05C43.1666 84.15 42.2332 82.95 41.4999 81.45C40.7666 79.95 40.3999 78.0667 40.3999 75.8C40.3999 74.9667 40.4666 73.9667 40.5999 72.8C40.7332 71.6333 40.9832 70.4333 41.3499 69.2C41.7499 67.9667 42.2832 66.75 42.9499 65.55C43.6499 64.3167 44.5499 63.2167 45.6499 62.25C46.7499 61.2833 48.0832 60.5 49.6499 59.9C51.2166 59.3 53.0832 59 55.2499 59C56.9832 59 58.4499 59.2 59.6499 59.6C60.8499 60 61.8166 60.55 62.5499 61.25C63.2832 61.9167 63.8166 62.7 64.1499 63.6C64.4832 64.5 64.6499 65.4667 64.6499 66.5C64.6499 68.0333 64.3332 69.3333 63.6999 70.4C63.0999 71.4667 62.2999 72.3667 61.2999 73.1C60.3332 73.8 59.2499 74.35 58.0499 74.75C56.8499 75.15 55.6666 75.4667 54.4999 75.7C53.3332 75.9 52.2499 76.0333 51.2499 76.1C50.2832 76.1333 49.5332 76.15 48.9999 76.15C48.9999 76.7833 49.0832 77.4167 49.2499 78.05C49.4499 78.65 49.7332 79.1833 50.0999 79.65C50.4666 80.1167 50.9499 80.5 51.5499 80.8C52.1499 81.1 52.8832 81.25 53.7499 81.25C54.6166 81.25 55.2832 81.1167 55.7499 80.85C56.2499 80.55 56.6499 80.2333 56.9499 79.9C57.2499 79.5333 57.4999 79.2167 57.6999 78.95C57.9332 78.65 58.2332 78.5 58.5999 78.5C58.7666 78.5 59.0499 78.55 59.4499 78.65C59.8832 78.7167 60.3166 78.8833 60.7499 79.15C61.1832 79.4167 61.5666 79.7833 61.8999 80.25C62.2332 80.7167 62.3999 81.3167 62.3999 82.05C62.3999 83.0167 62.0999 83.85 61.4999 84.55C60.8999 85.25 60.1166 85.8167 59.1499 86.25C58.2166 86.6833 57.1666 87 55.9999 87.2C54.8332 87.4 53.6999 87.5 52.5999 87.5ZM53.5499 65.65C52.8166 65.65 52.1832 65.8667 51.6499 66.3C51.1499 66.7 50.7166 67.2167 50.3499 67.85C50.0166 68.4833 49.7499 69.1833 49.5499 69.95C49.3832 70.7167 49.2499 71.45 49.1499 72.15C51.2166 72.1167 52.8832 71.7667 54.1499 71.1C55.4499 70.4333 56.0999 69.4833 56.0999 68.25C56.0999 67.5833 55.8832 66.9833 55.4499 66.45C55.0499 65.9167 54.4166 65.65 53.5499 65.65Z"
              fill="white"
            />
          </svg>